<?xml version="1.0" encoding="UTF-8" standalone="no"?>
<svg
   xmlns:dc="http://purl.org/dc/elements/1.1/"
   xmlns:cc="http://creativecommons.org/ns#"
   xmlns:rdf="http://www.w3.org/1999/02/22-rdf-syntax-ns#"
   xmlns:svg="http://www.w3.org/2000/svg"
   xmlns="http://www.w3.org/2000/svg"
   xmlns:sodipodi="http://sodipodi.sourceforge.net/DTD/sodipodi-0.dtd"
   xmlns:inkscape="http://www.inkscape.org/namespaces/inkscape"
   version="1.1"
   viewBox="0 0 452.84 452.84"
   enable-background="new 0 0 452.84 452.84"
   id="svg8"
   sodipodi:docname="email.svg"
   inkscape:version="0.92.3 (2405546, 2018-03-11)"
   width="452.84"
   height="452.84"
   inkscape:export-filename="D:\dev\projetos\alexrodin.info\src\img\email.png"
   inkscape:export-xdpi="10.599771"
   inkscape:export-ydpi="10.599771">
  <metadata
     id="metadata14">
    <rdf:RDF>
      <cc:Work
         rdf:about="">
        <dc:format>image/svg+xml</dc:format>
        <dc:type
           rdf:resource="http://purl.org/dc/dcmitype/StillImage" />
        <dc:title></dc:title>
      </cc:Work>
    </rdf:RDF>
  </metadata>
  <defs
     id="defs12" />
  <sodipodi:namedview
     pagecolor="#ffffff"
     bordercolor="#666666"
     borderopacity="1"
     objecttolerance="10"
     gridtolerance="10"
     guidetolerance="10"
     inkscape:pageopacity="0"
     inkscape:pageshadow="2"
     inkscape:window-width="1680"
     inkscape:window-height="997"
     id="namedview10"
     showgrid="false"
     inkscape:zoom="0.52115538"
     inkscape:cx="226.42"
     inkscape:cy="209.99"
     inkscape:window-x="-8"
     inkscape:window-y="-8"
     inkscape:window-maximized="1"
     inkscape:current-layer="g6"
     fit-margin-top="0"
     fit-margin-left="0"
     fit-margin-right="0"
     fit-margin-bottom="0" />
  <g
     id="g6"
     transform="translate(0,16.429989)">
    <g
       id="g1374"
       style="fill:#fffffc;fill-opacity:1">
      <path
         inkscape:connector-curvature="0"
         style="fill:#fffffc;fill-opacity:1"
         id="path2"
         d="m 449.483,190.4 10e-4,-0.001 -57.824,-38.335 V 23.93 c 0,-4.142 -3.358,-7.5 -7.5,-7.5 H 68.67 c -4.142,0 -7.5,3.358 -7.5,7.5 v 128.143 l -57.814,38.326 0.001,0.002 C 1.335,191.744 0,194.04 0,196.65 v 232.26 c 0,4.142 3.358,7.5 7.5,7.5 h 437.84 c 4.142,0 7.5,-3.358 7.5,-7.5 V 196.65 c 0,-2.61 -1.335,-4.906 -3.357,-6.25 z M 61.17,216.629 37.645,204.15 H 61.17 Z M 15,209.118 187.475,300.608 15,414.935 Z M 226.417,292.789 420.454,421.41 H 32.381 Z m 38.945,7.82 172.477,-91.491 V 414.939 Z M 391.66,204.15 h 23.536 l -23.536,12.484 z m 28.794,-15 H 391.66 V 170.06 Z M 376.66,31.43 V 224.591 L 251.133,291.177 230.56,277.54 c -2.511,-1.665 -5.776,-1.665 -8.287,0 L 201.703,291.175 76.17,224.586 V 31.43 Z M 61.17,189.15 H 32.388 L 61.17,170.07 Z" />
      <path
         inkscape:connector-curvature="0"
         style="fill:#fffffc;fill-opacity:1"
         id="path4"
         d="m 226.415,213.671 h 59.754 c 4.142,0 7.5,-3.358 7.5,-7.5 0,-4.142 -3.358,-7.5 -7.5,-7.5 h -59.754 c -28.813,0 -52.254,-23.441 -52.254,-52.254 v -2.213 c 0,-28.813 23.441,-52.254 52.254,-52.254 28.813,0 52.254,23.441 52.254,52.254 v 5.533 c 0,6.237 -5.074,11.312 -11.312,11.312 -6.238,0 -11.312,-5.074 -11.312,-11.312 v -10.512 c 0,-17.864 -14.533,-32.398 -32.397,-32.398 -17.864,0 -32.397,14.533 -32.397,32.398 0,17.864 14.533,32.397 32.397,32.397 8.169,0 15.636,-3.045 21.34,-8.052 4.644,7.483 12.932,12.478 22.369,12.478 14.508,0 26.312,-11.803 26.312,-26.312 v -5.533 c 0,-37.084 -30.17,-67.254 -67.254,-67.254 -37.084,0 -67.254,30.17 -67.254,67.254 v 2.213 c 0,37.085 30.17,67.255 67.254,67.255 z m -2.767,-57.049 c -9.593,0 -17.397,-7.804 -17.397,-17.397 0,-9.593 7.805,-17.398 17.397,-17.398 9.592,0 17.397,7.805 17.397,17.398 0,9.593 -7.804,17.397 -17.397,17.397 z" />
    </g>
  </g>
</svg>
