<?xml version="1.0" encoding="UTF-8" standalone="no"?>
<svg
   xmlns:dc="http://purl.org/dc/elements/1.1/"
   xmlns:cc="http://creativecommons.org/ns#"
   xmlns:rdf="http://www.w3.org/1999/02/22-rdf-syntax-ns#"
   xmlns:svg="http://www.w3.org/2000/svg"
   xmlns="http://www.w3.org/2000/svg"
   xmlns:sodipodi="http://sodipodi.sourceforge.net/DTD/sodipodi-0.dtd"
   xmlns:inkscape="http://www.inkscape.org/namespaces/inkscape"
   id="Layer_1"
   style="enable-background:new 0 0 78 78;"
   version="1.1"
   viewBox="0 0 78 78"
   xml:space="preserve"
   sodipodi:docname="linkedin.svg"
   inkscape:version="0.92.3 (2405546, 2018-03-11)"><metadata
     id="metadata19"><rdf:RDF><cc:Work
         rdf:about=""><dc:format>image/svg+xml</dc:format><dc:type
           rdf:resource="http://purl.org/dc/dcmitype/StillImage" /></cc:Work></rdf:RDF></metadata><defs
     id="defs17" /><sodipodi:namedview
     pagecolor="#ffffff"
     bordercolor="#666666"
     borderopacity="1"
     objecttolerance="10"
     gridtolerance="10"
     guidetolerance="10"
     inkscape:pageopacity="0"
     inkscape:pageshadow="2"
     inkscape:window-width="1680"
     inkscape:window-height="997"
     id="namedview15"
     showgrid="false"
     inkscape:zoom="3.025641"
     inkscape:cx="-14.707627"
     inkscape:cy="39"
     inkscape:window-x="-8"
     inkscape:window-y="-8"
     inkscape:window-maximized="1"
     inkscape:current-layer="Layer_1" /><style
     type="text/css"
     id="style2">
	.st0{fill:none;stroke:#000000;stroke-width:2;stroke-linecap:round;stroke-linejoin:round;stroke-miterlimit:10;}
	.st1{fill:#171715;}
	.st2{fill:#FFAC35;}
	.st3{fill:#AAC148;}
	.st4{fill:#0067FF;}
	.st5{fill:#00AEF0;}
	.st6{fill:#222A30;}
	.st7{fill:#90A358;}
	.st8{fill:#FFFFFF;}
	.st9{fill:#0074D2;}
	.st10{fill:#D4D1D1;}
	.st11{fill:#01CB3E;}
	.st12{fill:#A6285F;}
	.st13{fill:#1587EA;}
	.st14{fill:#90B24C;}
	.st15{fill:#E65300;}
	.st16{fill:#475993;}
	.st17{fill:#005DE1;}
	.st18{fill:#FF007E;}
	.st19{fill:#FF4175;}
	.st20{fill:#F34A38;}
	.st21{fill:#333F40;}
	.st22{fill:#FF9414;}
	.st23{fill:#0090E1;}
	.st24{fill:#FC490B;}
	.st25{fill:url(#XMLID_10_);}
	.st26{fill:url(#XMLID_11_);}
	.st27{fill:url(#XMLID_12_);}
	.st28{fill:#00CE62;}
	.st29{fill:#0077B7;}
	.st30{fill:#00FD8D;}
	.st31{fill:#00E470;}
	.st32{fill:#00C967;}
	.st33{fill:#00AD6C;}
	.st34{fill:#EB4427;}
	.st35{fill:#002987;}
	.st36{fill:#0085CC;}
	.st37{fill:#00186A;}
	.st38{fill:#00A4C3;}
	.st39{fill:#FF4B30;}
	.st40{fill:#9F1121;}
	.st41{fill:#2950A1;}
	.st42{fill:#CF2217;}
	.st43{fill:#0088C3;}
	.st44{fill:#FF1A03;}
	.st45{fill:#00AAF2;}
	.st46{fill:#050505;}
	.st47{fill:url(#SVGID_1_);}
	.st48{fill:url(#SVGID_2_);}
	.st49{fill:url(#SVGID_3_);}
	.st50{fill:url(#SVGID_4_);}
	.st51{fill:url(#SVGID_5_);}
	.st52{fill:url(#SVGID_6_);}
	.st53{fill:url(#SVGID_7_);}
	.st54{fill:url(#SVGID_8_);}
	.st55{fill:url(#SVGID_9_);}
	.st56{fill:url(#SVGID_10_);}
	.st57{fill:url(#SVGID_11_);}
	.st58{fill:#00D95F;}
	.st59{fill:#FF4403;}
	.st60{fill:#518FE1;}
	.st61{fill:#2A445D;}
	.st62{fill:#76A9EA;}
	.st63{fill:#69B4E5;}
	.st64{fill:#04B086;}
	.st65{fill:#7AD06D;}
	.st66{fill:#00769D;}
	.st67{fill:#DC0000;}
	.st68{fill:#F61C0D;}
</style><circle
     class="st0"
     cx="39"
     cy="39"
     r="36"
     id="circle12"
     style="stroke:#ffffff;stroke-opacity:1" /><g
     id="g10"><g
       id="g6"><path
         class="st0"
         d="M29.6,55.9c0,0.7-0.5,1.2-1.2,1.2h-5c-0.7,0-1.2-0.5-1.2-1.2V34.7c0-0.7,0.5-1.2,1.2-1.2h5    c0.7,0,1.2,0.5,1.2,1.2V55.9z M25.9,30.5c-2.6,0-4.8-2.1-4.8-4.8s2.1-4.8,4.8-4.8s4.8,2.1,4.8,4.8S28.5,30.5,25.9,30.5z M56.9,56    c0,0.6-0.5,1.1-1.1,1.1h-5.4c-0.6,0-1.1-0.5-1.1-1.1V46c0-1.5,0.4-6.5-3.9-6.5c-3.3,0-4,3.4-4.1,5V56c0,0.6-0.5,1.1-1.1,1.1H35    c-0.6,0-1.1-0.5-1.1-1.1V34.6c0-0.6,0.5-1.1,1.1-1.1h5.2c0.6,0,1.1,0.5,1.1,1.1v1.8c1.2-1.9,3.1-3.3,7-3.3c8.7,0,8.6,8.1,8.6,12.5    L56.9,56L56.9,56z"
         id="path4"
         style="stroke:#ffffff;stroke-opacity:1" /></g></g></svg>